<svg width="156" height="156" viewBox="0 0 156 156" fill="none" xmlns="http://www.w3.org/2000/svg">
<path d="M77.6821 0C34.7426 0 1.72902e-05 34.7491 1.72902e-05 77.695C-0.00679283 87.9 1.9982 98.0062 5.90033 107.436C9.80245 116.865 15.5252 125.433 22.7412 132.649C29.9572 139.865 38.5249 145.588 47.9544 149.49C57.3838 153.392 67.49 155.397 77.695 155.39C120.641 155.39 155.39 120.641 155.39 77.695C155.384 34.7491 120.35 0 77.6821 0ZM41.2431 94.367C43.7811 97.7532 47.1738 99.1712 51.9715 99.1712C54.2376 99.1712 56.4972 98.8863 58.472 98.0381C60.4532 97.1964 62.7128 96.0569 65.5293 94.367L73.4477 105.665C66.9537 111.039 59.605 113.577 51.1298 113.577C44.3444 113.577 38.6986 112.166 33.6161 109.343C28.6819 106.432 24.7418 102.099 22.3114 96.9116C19.7734 91.5377 18.3555 85.3221 18.3555 77.9734C18.3555 70.9161 19.7734 64.4156 22.305 59.0482C24.7221 53.7009 28.6578 49.1821 33.6225 46.0537C38.4202 42.9459 44.3509 41.5344 50.8514 41.5344C55.3771 41.5344 59.6115 42.0977 63.0042 43.5092C66.8104 44.9825 70.3427 47.0835 73.4542 49.7248L65.5422 60.4597C63.5336 58.9767 61.3531 57.7418 59.0482 56.7821C57.0735 55.9404 54.529 55.6555 52.2628 55.6555C42.661 55.6555 37.8569 62.9977 37.8569 77.9669C37.5785 85.6069 38.99 90.9679 41.2496 94.3606L41.2431 94.367ZM118.938 111.881C116.115 120.641 111.874 127.141 105.937 131.939C100.006 136.75 92.0945 139.288 82.2078 140.136L80.233 126.863C86.7271 126.008 91.5312 124.597 94.639 122.331C95.7656 121.489 98.0317 118.945 98.0317 118.945L74.5807 43.7941H94.0692L107.633 100.013L122.046 43.7941H140.971L118.938 111.881Z" fill="black"/>
</svg>
