<svg width="156" height="156" viewBox="0 0 156 156" fill="none" xmlns="http://www.w3.org/2000/svg">
<path d="M152.459 70.7714L84.6135 2.93083C80.7092 -0.976944 74.3718 -0.976944 70.4623 2.93083L56.3742 17.019L74.2456 34.8904C78.3989 33.4872 83.1609 34.4283 86.4719 37.7394C89.7983 41.0709 90.7326 45.8738 89.2954 50.0407L106.519 67.2642C110.686 65.8287 115.494 66.7579 118.822 70.0911C123.473 74.7405 123.473 82.2765 118.822 86.9293C114.169 91.5821 106.633 91.5821 101.979 86.9293C98.48 83.4273 97.6156 78.2885 99.387 73.9784L83.3246 57.9159L83.3229 100.185C84.4567 100.748 85.5274 101.497 86.4719 102.438C91.1231 107.087 91.1231 114.623 86.4719 119.279C81.8191 123.93 74.2797 123.93 69.6337 119.279C64.9826 114.623 64.9826 107.087 69.6337 102.438C70.7829 101.29 72.1127 100.422 73.5313 99.8393V57.176C72.1127 56.5963 70.7846 55.7336 69.6337 54.5776C66.1096 51.0586 65.2622 45.8874 67.0677 41.5602L49.4521 23.9411L2.93211 70.4576C-0.977371 74.3688 -0.977371 80.7062 2.93211 84.614L70.7777 152.456C74.6838 156.364 81.0195 156.364 84.9307 152.456L152.459 84.9294C156.367 81.0199 156.367 74.6791 152.459 70.7714Z" fill="#DE4C36"/>
</svg>
