<svg width="157" height="157" viewBox="0 0 157 157" fill="none" xmlns="http://www.w3.org/2000/svg">
<path d="M78.5197 7.22752C59.8306 7.03761 41.8307 14.2758 28.4759 27.3513C15.1212 40.4269 7.5043 58.2698 7.29932 76.9588C7.37133 91.7284 12.1225 106.095 20.8704 117.996C29.6184 129.896 41.9129 138.718 55.9882 143.194C59.5492 143.841 60.8441 141.705 60.8441 139.827C60.8441 137.949 60.8441 133.806 60.8441 127.978C41.0319 132.187 36.8234 118.655 36.8234 118.655C35.5045 114.407 32.7006 110.776 28.9244 108.425C22.4498 104.152 29.4424 104.217 29.4424 104.217C31.6803 104.516 33.8215 105.318 35.7053 106.563C37.5891 107.807 39.1667 109.462 40.3197 111.404C42.329 114.888 45.6258 117.444 49.5007 118.521C53.3756 119.599 57.5187 119.112 61.0384 117.166C61.4003 113.62 63.0059 110.317 65.5706 107.843C49.7726 106.094 33.1976 100.138 33.1976 73.3978C33.0564 66.4226 35.6337 59.6659 40.3844 54.5567C38.2208 48.5682 38.4763 41.9722 41.0966 36.1689C41.0966 36.1689 47.118 34.2913 60.5204 43.291C72.1869 40.1821 84.4641 40.1821 96.1306 43.291C109.727 34.2913 115.554 36.1689 115.554 36.1689C118.175 41.9722 118.43 48.5682 116.267 54.5567C121.128 59.5722 123.845 66.2836 123.842 73.2683C123.842 100.073 107.137 105.965 91.4689 107.713C93.1845 109.379 94.5098 111.404 95.3494 113.643C96.1891 115.882 96.5222 118.279 96.3248 120.662V139.762C96.3248 139.762 97.6198 143.841 101.181 143.129C115.216 138.625 127.469 129.802 136.19 117.918C144.911 106.034 149.653 91.6987 149.74 76.9588C149.535 58.2698 141.918 40.4269 128.564 27.3513C115.209 14.2758 97.2089 7.03761 78.5197 7.22752Z" fill="#231F20"/>
</svg>
