<svg width="156" height="144" viewBox="0 0 156 144" fill="none" xmlns="http://www.w3.org/2000/svg">
<path d="M77.6951 143.14L106.307 55.0825H49.0835L77.6951 143.14Z" fill="#E24329"/>
<path d="M77.695 143.139L49.0833 55.0823H8.98486L77.695 143.139Z" fill="#FC6D26"/>
<path d="M8.98492 55.0825L0.290363 81.8422C-0.502676 84.2828 0.365891 86.9566 2.44216 88.465L77.695 143.14L8.98492 55.0825Z" fill="#FCA326"/>
<path d="M8.98486 55.0827H49.0833L31.8505 2.04674C30.9641 -0.682618 27.1033 -0.681877 26.217 2.04674L8.98486 55.0827Z" fill="#E24329"/>
<path d="M77.6948 143.139L106.306 55.0823H146.405L77.6948 143.139Z" fill="#FC6D26"/>
<path d="M146.405 55.0825L155.099 81.8422C155.893 84.2828 155.024 86.9566 152.948 88.465L77.6948 143.14L146.405 55.0825Z" fill="#FCA326"/>
<path d="M146.405 55.0827H106.307L123.54 2.04674C124.426 -0.682618 128.287 -0.681877 129.173 2.04674L146.405 55.0827Z" fill="#E24329"/>
</svg>
