<svg width="156" height="94" viewBox="0 0 156 94" fill="none" xmlns="http://www.w3.org/2000/svg">
<path d="M36.6655 24.45H65.9735V26.7795H39.3521V44.3116H64.386V46.641H39.3521V65.8895H66.2788V68.219H36.6655V24.45ZM68.599 24.45H71.713L85.5121 43.6986L99.6166 24.45L118.801 0L87.2828 45.7215L103.524 68.219H100.288L85.5121 47.7444L70.675 68.219H67.4999L83.8636 45.7215L68.599 24.45ZM104.684 26.7795V24.45H138.083V26.7795H122.697V68.219H120.01V26.7795H104.684ZM0 24.45H3.35821L49.6659 93.7451L30.5291 68.219L2.80868 27.7603L2.68656 68.219H0L0 24.45ZM137.813 65.1865C137.264 65.1865 136.852 64.7613 136.852 64.2117C136.852 63.6621 137.264 63.2368 137.813 63.2368C138.368 63.2368 138.773 63.6621 138.773 64.2117C138.773 64.7613 138.368 65.1865 137.813 65.1865ZM140.453 62.6218H141.89C141.91 63.4004 142.478 63.9238 143.315 63.9238C144.249 63.9238 144.778 63.3611 144.778 62.3077V55.634H146.242V62.3142C146.242 64.2117 145.144 65.3043 143.328 65.3043C141.622 65.3043 140.453 64.2444 140.453 62.6218ZM148.156 62.5367H149.607C149.731 63.4331 150.607 64.0023 151.868 64.0023C153.044 64.0023 153.907 63.3938 153.907 62.5563C153.907 61.8366 153.358 61.4048 152.11 61.1104L150.894 60.8159C149.189 60.4168 148.411 59.5924 148.411 58.2053C148.411 56.5238 149.784 55.405 151.842 55.405C153.756 55.405 155.155 56.5238 155.24 58.1137H153.815C153.678 57.2435 152.92 56.7005 151.822 56.7005C150.666 56.7005 149.895 57.2566 149.895 58.1072C149.895 58.7811 150.391 59.1671 151.62 59.455L152.659 59.7102C154.593 60.1616 155.39 60.9468 155.39 62.3666C155.39 64.1724 153.992 65.3043 151.757 65.3043C149.666 65.3043 148.261 64.2248 148.156 62.5367Z" fill="black"/>
</svg>
