<svg width="156" height="139" viewBox="0 0 156 139" fill="none" xmlns="http://www.w3.org/2000/svg">
<path d="M127.762 44.8104C126.15 44.2555 124.479 43.7306 122.76 43.2341C123.042 42.0804 123.302 40.9417 123.532 39.8223C127.319 21.4419 124.843 6.63457 116.389 1.75936C108.283 -2.91532 95.0254 1.95879 81.6362 13.6111C80.3486 14.7315 79.0575 15.9178 77.7669 17.1611C76.907 16.3385 76.0484 15.5436 75.1921 14.7833C61.1598 2.32389 47.0945 -2.92666 38.6488 1.96266C30.5502 6.65089 28.1518 20.5712 31.5603 37.9904C31.8894 39.6729 32.2741 41.3911 32.7092 43.1381C30.7186 43.7032 28.7968 44.3056 26.958 44.9465C10.5066 50.6821 0 59.6714 0 68.9956C0 78.6257 11.2789 88.2848 28.4143 94.1417C29.7666 94.6039 31.1697 95.0409 32.6157 95.4558C32.1464 97.3452 31.7381 99.1967 31.3954 101.003C28.1455 118.119 30.6835 131.711 38.7605 136.37C47.1034 141.181 61.105 136.235 74.7391 124.318C75.8167 123.376 76.8981 122.376 77.9815 121.329C79.3858 122.682 80.7879 123.961 82.1824 125.162C95.3886 136.526 108.432 141.115 116.501 136.443C124.836 131.619 127.545 117.018 124.028 99.2542C123.759 97.8975 123.447 96.5115 123.096 95.1009C124.079 94.8102 125.045 94.5101 125.986 94.1981C143.8 88.2959 155.39 78.7543 155.39 68.9956C155.39 59.6376 144.545 50.5878 127.762 44.8104ZM123.898 87.8971C123.048 88.1784 122.177 88.4502 121.288 88.7138C119.322 82.488 116.667 75.8678 113.419 69.0279C116.519 62.351 119.07 55.8154 120.982 49.63C122.572 50.09 124.114 50.5751 125.601 51.0871C139.98 56.0372 148.752 63.3561 148.752 68.9956C148.752 75.0026 139.279 82.8006 123.898 87.8971ZM117.516 100.543C119.071 108.398 119.293 115.5 118.263 121.052C117.338 126.04 115.476 129.367 113.175 130.699C108.278 133.533 97.8057 129.849 86.5117 120.13C85.2169 119.016 83.9128 117.826 82.6045 116.567C86.983 111.778 91.3589 106.211 95.6298 100.029C103.142 99.3621 110.239 98.2723 116.675 96.7845C116.992 98.0632 117.273 99.3173 117.516 100.543ZM52.976 130.209C48.1915 131.898 44.3809 131.947 42.0774 130.619C37.1759 127.792 35.1383 116.879 37.9177 102.241C38.2361 100.564 38.615 98.8421 39.0518 97.0818C45.4173 98.4894 52.4623 99.5023 59.9923 100.113C64.2919 106.163 68.7943 111.724 73.3315 116.593C72.3402 117.55 71.3527 118.461 70.3708 119.319C64.342 124.589 58.3004 128.328 52.976 130.209ZM30.5612 87.8603C22.9843 85.2705 16.7269 81.9047 12.4378 78.2318C8.58376 74.9312 6.63793 71.6545 6.63793 68.9956C6.63793 63.3373 15.0737 56.1202 29.1431 51.2149C30.8503 50.6196 32.6373 50.0587 34.4919 49.5318C36.4363 55.8569 38.987 62.4699 42.0652 69.1571C38.9472 75.9436 36.3602 82.662 34.3967 89.0612C33.0746 88.6812 31.7937 88.2812 30.5612 87.8603ZM38.0748 36.7156C35.1546 21.7913 37.094 10.5329 41.9745 7.70775C47.1731 4.69815 58.6685 8.9892 70.7843 19.7473C71.5588 20.4349 72.3363 21.1546 73.116 21.8991C68.6012 26.747 64.14 32.2661 59.8786 38.2803C52.5705 38.9577 45.5749 40.0458 39.143 41.5029C38.7387 39.8762 38.3805 38.2781 38.0748 36.7156ZM105.103 53.2666C103.565 50.6108 101.987 48.0177 100.378 45.4955C105.336 46.1222 110.086 46.9542 114.547 47.9724C113.207 52.2645 111.538 56.7522 109.573 61.3528C108.164 58.6768 106.673 55.9786 105.103 53.2666ZM77.7691 26.6432C80.831 29.9604 83.8973 33.664 86.9133 37.6823C83.8741 37.5388 80.7973 37.4641 77.695 37.4641C74.6221 37.4641 71.5679 37.5371 68.5475 37.6782C71.5665 33.6972 74.6594 29.9986 77.7691 26.6432ZM50.2601 53.3125C48.7242 55.9758 47.261 58.6593 45.8736 61.3478C43.9405 56.7633 42.2868 52.2551 40.9359 47.9021C45.3694 46.91 50.0972 46.0987 55.0236 45.4839C53.3917 48.0294 51.8002 50.642 50.2601 53.3125ZM55.1655 92.9808C50.0756 92.413 45.2767 91.6435 40.8444 90.6787C42.2168 86.248 43.9071 81.6436 45.8811 76.9603C47.2721 79.6469 48.7411 82.3315 50.2864 85.0006C51.8605 87.7198 53.4915 90.3833 55.1655 92.9808ZM77.9528 111.816C74.8066 108.421 71.6683 104.666 68.6034 100.627C71.5787 100.744 74.6121 100.804 77.695 100.804C80.8623 100.804 83.9933 100.732 87.0751 100.595C84.0491 104.707 80.9939 108.468 77.9528 111.816ZM109.637 76.7216C111.714 81.4555 113.464 86.0359 114.855 90.3911C110.349 91.4189 105.485 92.2467 100.36 92.8619C101.973 90.3056 103.565 87.668 105.13 84.9549C106.713 82.21 108.216 79.461 109.637 76.7216ZM99.3795 81.6386C96.9505 85.8503 94.4568 89.8708 91.9251 93.6659C87.314 93.9956 82.5503 94.1655 77.695 94.1655C72.8593 94.1655 68.1556 94.0153 63.6261 93.7213C60.9924 89.8764 58.4445 85.8439 56.0309 81.6748C53.6237 77.5171 51.4088 73.3243 49.4013 69.1549C51.4082 64.9759 53.6179 60.7783 56.0113 56.628L56.0107 56.6289C58.4104 52.4675 60.936 48.4547 63.5454 44.6339C68.1667 44.2846 72.9055 44.1023 77.6947 44.1023C82.5055 44.1023 87.2507 44.286 91.8706 44.6383C94.4402 48.4312 96.9486 52.431 99.3577 56.5929C101.794 60.8015 104.032 64.9712 106.056 69.0606C104.038 73.2203 101.805 77.4319 99.3795 81.6386ZM113.073 7.51027C118.277 10.511 120.3 22.613 117.031 38.4825C116.823 39.4951 116.588 40.5265 116.333 41.5718C109.886 40.0842 102.885 38.9773 95.5559 38.2897C91.2862 32.2094 86.8615 26.6817 82.4203 21.8961C83.6143 20.7474 84.8067 19.6521 85.9941 18.6185C97.4661 8.63489 108.188 4.69318 113.073 7.51027ZM77.695 55.1198C85.3583 55.1198 91.5708 61.332 91.5708 68.9956C91.5708 76.6588 85.3583 82.8714 77.695 82.8714C70.0317 82.8714 63.8192 76.6588 63.8192 68.9956C63.8192 61.332 70.0317 55.1198 77.695 55.1198Z" fill="#00D8FF"/>
</svg>
