<svg width="156" height="151" viewBox="0 0 156 151" fill="none" xmlns="http://www.w3.org/2000/svg">
<path d="M27.5347 11.2505H113.794C127.945 11.2505 139.416 22.7215 139.416 36.8716V123.131C139.416 137.282 127.945 148.752 113.794 148.752H27.5347C13.3846 148.752 1.91357 137.282 1.91357 123.131V36.8716C1.91357 22.7215 13.3846 11.2505 27.5347 11.2505Z" fill="url(#paint0_radial_65_43)"/>
<path d="M27.5347 13.1639C14.4413 13.1639 3.827 23.7782 3.827 36.8716V123.131C3.827 136.225 14.4413 146.839 27.5347 146.839H113.794C126.888 146.839 137.502 136.225 137.502 123.131V36.8716C137.502 23.7782 126.888 13.1639 113.794 13.1639H27.5347ZM27.5347 9.33691H113.794C129.001 9.33691 141.329 21.6646 141.329 36.8716V123.131C141.329 138.338 129.001 150.666 113.794 150.666H27.5347C12.3277 150.666 0 138.338 0 123.131V36.8716C0 21.6646 12.3277 9.33691 27.5347 9.33691Z" fill="#2B2B2B"/>
<path opacity="0.81" d="M28.1785 16.3052H112.647C124.794 16.3052 134.641 26.1522 134.641 38.2991V89.487C134.641 101.634 124.794 111.481 112.647 111.481H28.1785C16.0316 111.481 6.18457 101.634 6.18457 89.487V38.2991C6.18457 26.1522 16.0316 16.3052 28.1785 16.3052Z" fill="url(#paint1_linear_65_43)"/>
<path d="M60.3453 84.9942L47.7215 89.2176C46.0197 84.2053 42.4151 81.6991 36.9076 81.699C31.0289 81.6991 28.0895 83.6019 28.0895 87.4076C28.0895 88.9237 28.6387 90.2078 29.7371 91.2597C30.8355 92.3117 33.3185 93.2245 37.1861 93.998C43.6527 95.2975 48.3867 96.6125 51.388 97.9429C54.3892 99.2734 56.9186 101.416 58.9762 104.371C61.0337 107.326 62.0625 110.629 62.0625 114.28C62.0625 120.004 59.858 124.954 55.4489 129.131C51.0398 133.308 44.5036 135.397 35.8402 135.397C29.3426 135.397 23.8119 133.919 19.2482 130.965C14.6844 128.01 11.6754 123.624 10.2212 117.807L23.9589 114.697C25.5059 120.607 29.8067 123.562 36.8612 123.562C40.2647 123.562 42.8018 122.904 44.4727 121.589C46.1434 120.274 46.9789 118.704 46.9789 116.879C46.9789 115.022 46.2208 113.584 44.7047 112.562C43.1886 111.541 40.2647 110.582 35.933 109.685C27.8574 108.014 22.1025 105.732 18.668 102.839C15.2336 99.9464 13.5164 95.7152 13.5164 90.1458C13.5164 84.5147 15.5662 79.7653 19.6659 75.8976C23.7655 72.0301 29.3271 70.0963 36.3507 70.0962C48.7889 70.0963 56.7871 75.0623 60.3453 84.9942ZM110.082 113.305H79.9149C79.8839 114.14 79.8684 114.868 79.8684 115.486C79.8684 118.828 80.758 121.35 82.5371 123.051C84.3162 124.753 86.4433 125.604 88.9186 125.604C93.5288 125.604 96.298 123.144 97.2262 118.225L109.757 119.153C106.261 129.982 99.16 135.397 88.4545 135.397C83.7824 135.397 79.8143 134.461 76.55 132.589C73.2858 130.717 70.5939 127.986 68.4745 124.397C66.355 120.808 65.2953 116.507 65.2953 111.495C65.2953 104.038 67.4225 98.0203 71.6769 93.441C75.9312 88.8619 81.4 86.5722 88.0832 86.5722C94.1167 86.5722 99.2915 88.6994 103.608 92.9537C107.924 97.2081 110.082 103.992 110.082 113.305ZM79.8684 105.276H96.5301C96.0969 98.8402 93.4514 95.6224 88.5938 95.6224C83.3957 95.6224 80.4872 98.8402 79.8684 105.276Z" fill="#EEEEEE"/>
<path d="M36.3505 71.196C29.5925 71.196 24.3021 73.0355 20.4203 76.6976C16.5408 80.3575 14.6159 84.8176 14.6159 90.1459C14.6159 95.4086 16.2067 99.3285 19.3763 101.998C22.6444 104.751 28.2429 106.971 36.1559 108.608C40.6187 109.533 43.6515 110.528 45.3188 111.65C47.1397 112.877 48.0783 114.658 48.0784 116.879C48.0783 119.058 47.0775 120.939 45.1526 122.454C43.2589 123.944 40.4895 124.662 36.861 124.662C29.7399 124.662 25.1017 121.742 23.1969 115.997L11.5831 118.626C13.06 123.638 15.809 127.428 19.8456 130.041C24.2222 132.875 29.5454 134.297 35.84 134.297C44.2437 134.297 50.5106 132.295 54.6924 128.333C58.8858 124.36 60.9626 119.697 60.9626 114.28C60.9626 110.853 60.0021 107.769 58.0735 104.999C56.1282 102.206 53.7547 100.195 50.9421 98.9484C48.0298 97.6574 43.3637 96.3613 36.9702 95.0764C32.9077 94.2639 30.272 93.295 28.9763 92.054C27.6614 90.7948 26.9896 89.224 26.9896 87.4077C26.9896 82.8691 30.4956 80.5994 36.9074 80.5994C42.4942 80.5994 46.3791 83.0497 48.3761 87.839L58.9086 84.3153C55.3408 75.5487 47.8954 71.196 36.3505 71.196ZM47.0319 90.6079L46.6799 89.5713C45.1317 85.011 41.9499 82.7988 36.9074 82.7988C31.5617 82.7988 29.189 84.3348 29.189 87.4077C29.189 88.6237 29.6155 89.6209 30.4976 90.4656C31.3986 91.3286 33.7288 92.1852 37.4026 92.9199C43.9413 94.234 48.7431 95.5678 51.8334 96.9377C55.0232 98.3518 57.7085 100.627 59.8784 103.743C62.0648 106.883 63.162 110.405 63.162 114.28C63.162 120.311 60.8297 125.548 56.205 129.93C51.5686 134.322 44.7631 136.497 35.84 136.497C29.1393 136.497 23.4012 134.964 18.6503 131.888C13.8459 128.777 10.6742 124.154 9.1541 118.074L8.88135 116.983L24.7532 113.39L25.0225 114.419C26.4361 119.819 30.2835 122.462 36.861 122.462C40.0394 122.462 42.3443 121.865 43.7923 120.725C45.209 119.61 45.8789 118.351 45.879 116.879C45.8789 115.387 45.3014 114.29 44.0902 113.475C42.7253 112.555 39.9103 111.632 35.71 110.762C27.4715 109.057 21.56 106.714 17.9593 103.68C14.26 100.564 12.4165 96.022 12.4165 90.1459C12.4165 84.2119 14.5912 79.1731 18.911 75.0978C23.2284 71.0248 29.0613 68.9966 36.3505 68.9966C49.2299 68.9966 57.6562 74.2285 61.3804 84.6234L61.7592 85.6808L47.0319 90.6079ZM102.836 93.737C98.7248 89.6852 93.8272 87.672 88.083 87.672C81.6998 87.672 76.5245 89.8388 72.4823 94.1896C68.4269 98.5547 66.3948 104.304 66.3948 111.495C66.3948 116.319 67.407 120.427 69.4212 123.838C71.4462 127.268 74.0025 129.861 77.0969 131.635C80.1842 133.406 83.9646 134.297 88.4543 134.297C98.2266 134.297 104.768 129.635 108.253 120.144L98.0952 119.392C96.8846 124.19 93.7595 126.704 88.9184 126.704C86.1603 126.704 83.7608 125.744 81.7767 123.846C79.7597 121.917 78.7685 119.107 78.7685 115.486C78.7685 114.853 78.7843 114.113 78.8157 113.264L78.8549 112.205H108.972C108.809 103.731 106.746 97.591 102.836 93.737ZM80.9679 115.486C80.9679 118.549 81.7558 120.783 83.297 122.257C84.8711 123.763 86.7259 124.504 88.9184 124.504C92.9834 124.504 95.3124 122.436 96.1454 118.021L96.3275 117.055L111.233 118.16L110.804 119.491C107.164 130.765 99.6471 136.497 88.4543 136.497C83.5998 136.497 79.4439 135.516 76.0028 133.543C72.5686 131.574 69.7412 128.706 67.5273 124.957C65.3026 121.189 64.1954 116.696 64.1954 111.495C64.1954 103.773 66.4176 97.4861 70.871 92.6926C75.3375 87.8851 81.0997 85.4726 88.083 85.4726C94.4057 85.4726 99.8577 87.7137 104.38 92.1706C108.935 96.6606 111.182 103.723 111.182 113.305L111.182 114.405H80.9814C80.9724 114.798 80.9679 115.158 80.9679 115.486ZM78.6577 106.376L78.7736 105.171C79.4427 98.2117 82.7769 94.5228 88.5935 94.5228C94.1016 94.5228 97.1585 98.2411 97.6271 105.202L97.7061 106.376H78.6577ZM95.3245 104.176C94.7184 99.0789 92.5116 96.7222 88.5935 96.7222C84.3373 96.7222 81.8923 99.0948 81.1119 104.176H95.3245Z" fill="#232323"/>
<path d="M65.4463 54.3435L91.3156 81.9374L154.028 17.0065L145.405 1.82983L93.0402 56.758L75.1042 39.8567L65.4463 54.3435Z" fill="url(#paint2_linear_65_43)"/>
<path d="M66.4556 52.2033L91.9799 70.7303L151.89 12.7684L145.889 1.78735L93.1801 57.7503L75.589 41.5388L66.4556 52.2033Z" fill="url(#paint3_radial_65_43)"/>
<path d="M145.629 0L155.39 17.1787L91.3032 83.5327L64.0469 54.4593L74.9105 38.1638L92.9981 55.2079L145.629 0ZM91.3269 80.3423L152.665 16.8344L145.179 3.65973L93.0812 58.3082L75.2967 41.5497L66.8446 54.2278L91.3269 80.3423Z" fill="black"/>
<defs>
<radialGradient id="paint0_radial_65_43" cx="0" cy="0" r="1" gradientUnits="userSpaceOnUse" gradientTransform="translate(1298.95 32031.7) scale(36970.8)">
<stop stop-color="#212121"/>
<stop offset="1" stop-color="#B8B8B8"/>
</radialGradient>
<linearGradient id="paint1_linear_65_43" x1="16737.3" y1="31929.5" x2="16737.3" y2="16.3052" gradientUnits="userSpaceOnUse">
<stop stop-color="#4B4B4B"/>
<stop offset="1" stop-color="white"/>
</linearGradient>
<linearGradient id="paint2_linear_65_43" x1="7184.76" y1="16749.6" x2="11992.9" y2="5468.57" gradientUnits="userSpaceOnUse">
<stop stop-color="#26761E"/>
<stop offset="1" stop-color="#2CB134" stop-opacity="0.996078"/>
</linearGradient>
<radialGradient id="paint3_radial_65_43" cx="0" cy="0" r="1" gradientUnits="userSpaceOnUse" gradientTransform="translate(5461 8343.35) scale(9149.73 9149.72)">
<stop stop-color="white"/>
<stop offset="1" stop-color="white" stop-opacity="0"/>
</radialGradient>
</defs>
</svg>
