<svg width="24" height="24" viewBox="0 0 24 24" fill="none" xmlns="http://www.w3.org/2000/svg">
<path d="M20.3333 3.11133H3.66667C2.74653 3.11133 2 3.85786 2 4.77799V15.8891C2 16.8092 2.74653 17.5558 3.66667 17.5558H10.3333L9.77778 19.2224H7.27778C6.81597 19.2224 6.44444 19.594 6.44444 20.0558C6.44444 20.5176 6.81597 20.8891 7.27778 20.8891H16.7222C17.184 20.8891 17.5556 20.5176 17.5556 20.0558C17.5556 19.594 17.184 19.2224 16.7222 19.2224H14.2222L13.6667 17.5558H20.3333C21.2535 17.5558 22 16.8092 22 15.8891V4.77799C22 3.85786 21.2535 3.11133 20.3333 3.11133ZM19.7778 15.3336H4.22222V5.33355H19.7778V15.3336Z" fill="#DFD794"/>
</svg>
