<svg width="24" height="24" viewBox="0 0 24 24" fill="none" xmlns="http://www.w3.org/2000/svg">
<path d="M21.6227 11.1092L12.8929 2.37708C12.6512 2.13563 12.3235 2 11.9819 2C11.6403 2 11.3127 2.13563 11.071 2.37708L9.25581 4.19091L11.5558 6.49091C12.7638 6.08287 13.9076 7.23956 13.4929 8.4409L15.7098 10.6579C17.2379 10.1311 18.441 12.0418 17.2933 13.1887C16.1107 14.3712 14.1589 13.0605 14.7933 11.5217L12.7241 9.45518V14.8949C13.8536 15.4547 13.7179 16.7632 13.1295 17.3502C12.842 17.6376 12.4522 17.7989 12.0458 17.7989C11.6393 17.7989 11.2495 17.6376 10.9621 17.3502C10.1777 16.5645 10.4679 15.2561 11.4643 14.8503V9.3592C10.5357 8.97929 10.3661 7.98688 10.6321 7.35028L8.36475 5.0802L2.37727 11.0686C2.1357 11.3102 2 11.6378 2 11.9795C2 12.3212 2.1357 12.6488 2.37727 12.8904L11.1098 21.6225C11.3514 21.864 11.679 21.9996 12.0205 21.9996C12.3621 21.9996 12.6897 21.864 12.9312 21.6225L21.6227 12.9311C21.8643 12.6895 22 12.3618 22 12.0201C22 11.6785 21.8643 11.3508 21.6227 11.1092Z" fill="#DDDCDC"/>
</svg>
