<svg width="14" height="14" viewBox="0 0 14 14" fill="none" xmlns="http://www.w3.org/2000/svg">
<path d="M7.18897 0.359375C7.15381 0.359375 7.11865 0.363281 7.0835 0.375C3.5874 0.433593 0.759277 3.26562 0.70459 6.76172C0.685058 6.83203 0.685058 6.91016 0.70459 6.98047C0.763183 10.4766 3.59522 13.3047 7.09131 13.3633C7.16162 13.3789 7.23975 13.3789 7.31006 13.3633C10.8062 13.3008 13.6343 10.4688 13.6929 6.97266C13.7085 6.90234 13.7085 6.82422 13.6929 6.75391C13.6304 3.26172 10.8062 0.433593 7.31397 0.375C7.271 0.363281 7.23193 0.359375 7.18897 0.359375ZM6.69678 1.39062V2.36719C6.69287 2.54688 6.79053 2.71484 6.94287 2.80469C7.09912 2.89844 7.29443 2.89844 7.45068 2.80469C7.60303 2.71484 7.70068 2.54688 7.69678 2.36719V1.39062C10.3374 1.62891 12.4351 3.72656 12.6694 6.36719H11.6968C11.5171 6.36328 11.3491 6.46094 11.2593 6.61328C11.1655 6.76953 11.1655 6.96484 11.2593 7.12109C11.3491 7.27344 11.5171 7.37109 11.6968 7.36719H12.6694C12.4351 10.0078 10.3374 12.1055 7.69678 12.3398V11.3672C7.70068 11.2305 7.646 11.1016 7.55225 11.0039C7.45459 10.9102 7.32568 10.8555 7.18897 10.8594C6.91162 10.8633 6.69287 11.0898 6.69678 11.3672V12.3398C4.05615 12.1055 1.9585 10.0078 1.72022 7.36719H2.69678C2.87647 7.37109 3.04443 7.27344 3.13428 7.12109C3.22803 6.96484 3.22803 6.76953 3.13428 6.61328C3.04443 6.46094 2.87647 6.36328 2.69678 6.36719H1.72022C1.9585 3.72656 4.05615 1.62891 6.69678 1.39062ZM9.69678 4.36719L6.19678 5.86719L4.69678 9.36719L8.19678 7.86719L9.69678 4.36719Z" fill="white"/>
</svg>
