<svg width="16" height="14" viewBox="0 0 16 14" fill="none" xmlns="http://www.w3.org/2000/svg">
<path d="M2.18994 0.359375C1.36572 0.359375 0.689941 1.03516 0.689941 1.85938V9.85938C0.689941 10.6836 1.36572 11.3594 2.18994 11.3594H7.68994V10.3594H2.18994C1.90869 10.3594 1.68994 10.1406 1.68994 9.85938V2.3125L7.68994 6.46875L13.6899 2.3125V7.35938H14.6899V1.85938C14.6899 1.03516 14.0142 0.359375 13.1899 0.359375H2.18994ZM2.18994 1.35938H13.1899C13.2251 1.35938 13.2524 1.37109 13.2837 1.37891L7.68994 5.25L2.09619 1.37891C2.12744 1.37109 2.15479 1.35938 2.18994 1.35938ZM12.6899 8.35938V10.3594H8.68994V11.3594H12.6899V13.3594L15.1899 10.8594L12.6899 8.35938Z" fill="white"/>
</svg>
