<svg width="24" height="24" viewBox="0 0 24 24" fill="none" xmlns="http://www.w3.org/2000/svg">
<path d="M15.7264 14.5238L12.0001 18.2502L8.27368 14.5238C5.48085 14.6449 3.25049 16.9299 3.25049 19.7501V20.1251C3.25049 21.1602 4.09029 22 5.1254 22H18.8747C19.9098 22 20.7496 21.1602 20.7496 20.1251V19.7501C20.7496 16.9299 18.5193 14.6449 15.7264 14.5238ZM3.78171 5.11801L4.0317 5.1766V7.45774C3.75828 7.6218 3.56297 7.90694 3.56297 8.25067C3.56297 8.57878 3.74265 8.8522 3.99655 9.02016L3.3872 11.4536C3.3208 11.7232 3.46923 12.0005 3.68406 12.0005H5.31679C5.53163 12.0005 5.68006 11.7232 5.61365 11.4536L5.00431 9.02016C5.2582 8.8522 5.43788 8.57878 5.43788 8.25067C5.43788 7.90694 5.24258 7.6218 4.96915 7.45774V5.40315L7.54715 6.02422C7.21123 6.69606 7.00031 7.44602 7.00031 8.25067C7.00031 11.0123 9.23848 13.2504 12.0001 13.2504C14.7616 13.2504 16.9998 11.0123 16.9998 8.25067C16.9998 7.44602 16.7928 6.69606 16.453 6.02422L20.2145 5.11801C20.9254 4.94615 20.9254 4.05947 20.2145 3.8876L12.7774 2.09082C12.2696 1.96973 11.7344 1.96973 11.2267 2.09082L3.78171 3.8837C3.07472 4.05556 3.07472 4.94615 3.78171 5.11801Z" fill="#DFD794"/>
</svg>
